<?xml version="1.0" standalone="no"?>
<!DOCTYPE svg PUBLIC "-//W3C//DTD SVG 1.1//EN" "http://www.w3.org/Graphics/SVG/1.1/DTD/svg11.dtd" >
<svg xmlns="http://www.w3.org/2000/svg">
<metadata></metadata>
<defs>
<font id="ScrambleMixedRegular" horiz-adv-x="1140" >
<font-face units-per-em="2048" ascent="1638" descent="-410" />
<missing-glyph horiz-adv-x="1048" />
<glyph horiz-adv-x="0" />
<glyph horiz-adv-x="2048" />
<glyph unicode=" "  horiz-adv-x="1048" />
<glyph unicode="&#x09;" horiz-adv-x="1048" />
<glyph unicode="&#xa0;" horiz-adv-x="1048" />
<glyph unicode="A" horiz-adv-x="1163" d="M108 109q12 47 31 90q72 182 145.5 367.5t143.5 371.5q12 31 31.5 62.5t50.5 46.5q35 22 70.5 21.5t72.5 -21.5q47 -27 68.5 -78t40.5 -97l272 -665q33 -82 32 -111q0 -66 -70 -91q-23 -8 -42 -8q-39 0 -63 34q-14 20 -26.5 48.5t-24.5 53.5l-45 131h-422l-49 -131 q-16 -47 -36 -90t-77 -43q-39 0 -72 27t-33 61q-1 10 2 21zM428 420h307l-155 424z" />
<glyph unicode="B" horiz-adv-x="1050" d="M96 143v775q0 129 125 129h336q57 0 127 -9q94 -14 156.5 -84.5t62.5 -162.5q0 -160 -155 -228q207 -66 206 -252q0 -190 -168 -256q-59 -29 -124.5 -34t-124.5 -5h-316q-125 0 -125 127zM303 174h225q211 0 211 154q0 92 -71.5 119.5t-145.5 27.5h-219v-301zM303 623 h191q51 0 103 11t83 62q28 50 28 86q0 50 -56 72q-96 37 -177 37h-172v-268z" />
<glyph unicode="C" horiz-adv-x="1146" d="M135 385q-15 72 -15 143q0 116 40 228q74 201 260 272q94 35 208.5 35t209.5 -47q92 -47 151 -125q23 -39 43 -99q6 -20 6 -39q0 -36 -26 -65q-29 -33 -58 -33q-18 1 -36 13q-46 32 -70 80q-43 74 -96 112q-51 39 -138 39q-131 0 -202 -98q-78 -104 -78 -277 q0 -88 25.5 -179t103.5 -138q61 -43 149 -43t146 47q68 43 98 131q12 35 29.5 62.5t64.5 27.5q92 0 92 -90q0 -61 -30.5 -117.5t-69.5 -99.5q-63 -70 -148 -97.5t-176 -27.5q-160 0 -268 61q-86 47 -140 138.5t-75 185.5z" />
<glyph unicode="D" horiz-adv-x="1073" d="M96 164v754q0 129 125 129h273q86 0 167.5 -17.5t151.5 -75.5q164 -137 164 -417q0 -82 -15.5 -162t-50.5 -146q-94 -178 -284 -202q-89 -13 -181 -13h-20q-102 2 -201 2q-82 0 -105.5 39t-23.5 109zM303 182q77 0 187 -2h8q104 0 159 53q104 86 105 304q0 86 -28.5 189 t-131.5 134q-70 23 -149.5 23h-149.5v-701z" />
<glyph unicode="E" horiz-adv-x="989" d="M96 143v775q0 129 125 129h553q35 0 66.5 -17.5t31.5 -60.5q0 -82 -98 -82h-471v-252h432q98 0 99 -78q0 -47 -32 -64.5t-67 -17.5h-432v-293h488q100 0 100 -82q0 -45 -33 -64.5t-67 -19.5h-570q-125 0 -125 127z" />
<glyph unicode="F" horiz-adv-x="915" d="M96 129v789q0 129 129 129h492q100 0 100 -78q0 -82 -100 -82h-410v-264h342q35 0 67 -17.5t32 -60.5q0 -47 -32 -62.5t-67 -15.5h-342v-338q0 -55 -25.5 -92t-78.5 -37q-59 0 -83 37t-24 92z" />
<glyph unicode="G" horiz-adv-x="1193" d="M120 428q-7 51 -7 101q0 117 39 223q35 100 104 170q78 78 183.5 111.5t213.5 33.5q78 0 164 -23.5t148 -74.5q35 -31 68.5 -80t33.5 -94q0 -72 -71 -91q-18 -6 -34 -6q-45 0 -71 41q-23 27 -38 52.5t-28 42.5q-59 57 -155 67q-22 2 -43 2q-68 0 -121 -24 q-100 -45 -139 -142.5t-39 -199.5q0 -182 80 -277q68 -82 172 -95q35 -4 68 -4q67 0 130 17q55 16 129 55v168h-159q-43 0 -82 13.5t-39 64.5q0 39 28.5 58.5t63.5 19.5h237q55 0 76 -8q37 -12 51.5 -45t14.5 -68v-198q0 -78 -35 -105q-16 -16 -55 -37q-100 -53 -179 -73 q-90 -24 -187 -24q-58 0 -119 9q-161 23 -267 135q-113 111 -136 285z" />
<glyph unicode="H" horiz-adv-x="1062" d="M96 129v809q0 51 21.5 90t81.5 39q57 0 80.5 -39t23.5 -90v-297h453v297q0 47 22.5 88t81.5 41q55 0 80 -41t25 -88v-809q0 -51 -25 -90t-80 -39q-59 0 -81.5 37t-22.5 92v346h-453v-346q0 -51 -23.5 -90t-80.5 -39q-59 0 -81 37t-22 92z" />
<glyph unicode="I" horiz-adv-x="405" d="M96 129v809q0 47 23.5 88t83.5 41q53 0 78.5 -41t25.5 -88v-809q0 -55 -25.5 -92t-78.5 -37q-59 0 -83 39t-24 90z" />
<glyph unicode="J" horiz-adv-x="882" d="M100 316v13q0 44 29 77q32 29 63 29q21 0 42 -13q51 -33 61 -92q12 -70 37.5 -116t107.5 -46q135 0 135 201v569q0 51 24 90t81 39q55 0 80.5 -39t25.5 -90v-541q0 -172 -73.5 -284.5t-272.5 -112.5q-121 0 -207 50t-116 179q-12 35 -17 87z" />
<glyph unicode="K" horiz-adv-x="1089" d="M96 172v766q0 51 21.5 90t81.5 39q55 0 79.5 -39t24.5 -90v-363l410 429q23 25 46 44t58 19q100 0 101 -94q0 -51 -46 -90l-254 -242l293 -416q23 -43 53 -101q11 -22 11 -43q0 -32 -29 -58q-29 -23 -73 -25h-7q-39 0 -65 20q-27 16 -46.5 47t-35.5 60l-244 377 l-172 -164v-209q-1 -59 -29 -98q-24 -32 -68 -32q-9 0 -20 1q-74 8 -82 62.5t-8 109.5z" />
<glyph unicode="L" horiz-adv-x="929" d="M96 143v795q0 57 33 96q23 29 72 29t75 -29q31 -39 31 -96v-748h424q35 0 69 -21.5t34 -68.5q0 -45 -34 -64.5t-69 -19.5h-506q-129 0 -129 127z" />
<glyph unicode="M" horiz-adv-x="1185" d="M96 117v817q0 66 37 90q31 23 74 23h84q33 0 69.5 -6.5t51.5 -41.5q16 -43 32 -88l148 -565l151 565q8 27 13.5 50.5t13.5 37.5q16 35 53 41.5t72 6.5h80t80 -23q35 -25 35 -90v-817q0 -66 -27 -86q-27 -33 -66 -33h-5q-42 2 -66 33q-27 20 -27 86v712l-168 -657 q-12 -39 -21.5 -80t-39.5 -69q-37 -28 -76 -28q-33 0 -66 21q-39 23 -52 68t-25 88l-162 657v-712q0 -47 -23.5 -82t-75.5 -35q-55 0 -74.5 35t-19.5 82z" />
<glyph unicode="N" horiz-adv-x="1058" d="M96 121v794q0 53 13 78q25 57 88 69q14 3 27 2q46 0 79 -32q16 -25 32 -48.5t32 -41.5l399 -608v612q0 47 21.5 84t76.5 37q51 0 74 -37t23 -84v-811q0 -135 -113 -135q-61 0 -98 39t-66 86l-393 598v-602q0 -47 -22.5 -84t-73.5 -37q-55 0 -77 35t-22 86z" />
<glyph unicode="O" horiz-adv-x="1206" d="M96 537q0 102 32 202.5t101 182.5q70 74 167.5 109.5t203.5 35.5q156 0 277 -68q123 -74 177 -199.5t54 -267.5q0 -104 -30.5 -205.5t-100.5 -179.5q-70 -82 -169 -114.5t-206 -32.5q-104 0 -203.5 33t-169.5 114q-70 78 -101.5 181.5t-31.5 208.5zM311 537 q0 -104 37 -204t139 -143q58 -29 117 -29q74 0 148 46q82 47 112.5 142.5t30.5 187.5q0 86 -28.5 177t-110.5 142q-76 47 -155 47q-58 0 -118 -26q-98 -47 -135 -144.5t-37 -195.5z" />
<glyph unicode="P" horiz-adv-x="976" d="M96 125v793q0 129 133 129h265q74 0 153.5 -13.5t138.5 -60.5q92 -90 93 -234q0 -160 -93 -241q-106 -78 -292 -78h-191v-291q0 -51 -24.5 -90t-75.5 -39q-59 0 -83 37t-24 88zM303 575h141q49 0 105.5 10.5t91.5 55.5q29 35 29 90v13q-4 64 -39 100q-48 47 -187 47h-141 v-316z" />
<glyph unicode="Q" horiz-adv-x="1210" d="M96 537q0 102 32 204.5t101 180.5q70 74 167.5 109.5t203.5 35.5q156 0 277 -68q123 -70 179 -197q52 -120 52 -251v-19q-10 -170 -62.5 -253.5t-107.5 -161.5q23 -39 54.5 -76t31.5 -68q0 -59 -63 -59q-35 0 -74 47t-62 86q-55 -29 -101 -38t-122 -9q-104 0 -203.5 33 t-169.5 114q-70 78 -101.5 181.5t-31.5 208.5zM311 537q0 -182 82 -277q57 -70 143 -89q32 -7 62 -7q56 0 111 22q-25 39 -55.5 69t-43.5 56q-12 17 -12 33q0 15 9 30q20 32 55 32q27 0 60.5 -43.5t86.5 -102.5q51 55 68.5 127t17.5 150q0 86 -30.5 177t-108.5 142 q-77 45 -156 45q-58 0 -117 -24q-98 -47 -135 -144.5t-37 -195.5z" />
<glyph unicode="R" horiz-adv-x="1054" d="M96 129v789q0 72 29 98q31 31 96 31h342q47 0 103.5 -6.5t107.5 -24.5q160 -70 160 -254q0 -109 -62 -182q-72 -70 -198 -97q53 -35 104 -86q98 -113 152 -241q12 -30 19 -58q2 -9 2 -19q0 -18 -9 -36q-25 -35 -71 -43q-12 -2 -22 -2q-32 0 -54 18q-33 18 -54.5 51 t-35.5 66l-82 139q-47 74 -82 117q-39 43 -70 55q-47 14 -94 15h-74v-330q0 -70 -27 -98q-31 -31 -80 -33h-5q-45 0 -66 33q-29 29 -29 98zM303 606h186q47 0 110 8.5t97 51.5q23 27 25 76v8q0 44 -21 75q-35 47 -93 56.5t-109 9.5h-195v-285z" />
<glyph unicode="S" horiz-adv-x="1028" d="M112 268q-5 18 -4 34q0 38 27 65q29 28 60 28q19 0 37 -10q50 -27 67 -74q59 -159 213 -159h2q70 0 139.5 34.5t69.5 116.5q0 51 -33 84t-80 49q-82 23 -162.5 42.5t-156.5 53.5q-80 39 -117 95q-43 58 -43 142v7q2 88 43 150q55 78 152.5 109.5t191.5 31.5 q104 0 234.5 -60.5t130.5 -193.5q0 -39 -27 -67.5t-61 -28.5q-63 0 -99 78q-61 123 -194 123q-53 0 -115.5 -29t-62.5 -92q0 -53 41 -81t84 -38q57 -20 124.5 -35.5t131.5 -36.5q100 -35 162.5 -102t62.5 -176q0 -176 -130 -252t-278 -76q-115 0 -211 37t-155 131 q-28 40 -44 100z" />
<glyph unicode="T" horiz-adv-x="1069" d="M96 961q0 47 32 66.5t75 19.5h661q43 0 76 -19.5t33 -66.5q0 -45 -33 -64.5t-76 -19.5h-225v-748q0 -51 -23.5 -90t-83.5 -39q-57 0 -80.5 37t-23.5 92v748h-225q-43 0 -75 19t-32 65z" />
<glyph unicode="U" horiz-adv-x="1058" d="M96 444v494q0 47 21.5 88t81.5 41q57 0 80.5 -41t23.5 -88v-506q0 -129 49 -196.5t176 -67.5q129 0 178.5 69.5t49.5 190.5v510q0 47 20.5 88t79.5 41t82 -41t23 -88v-494q0 -207 -95.5 -325.5t-320.5 -118.5q-233 0 -341 105.5t-108 338.5z" />
<glyph unicode="V" horiz-adv-x="1116" d="M108 948q-3 11 -3 22q0 33 30 64q42 40 75 40q28 0 49 -28q48 -62 71 -120l233 -688l234 696q21 58 81 122q23 24 45 25q38 0 76 -65q13 -22 13 -45q0 -14 -5 -29q-12 -39 -22 -74l-250 -673q-12 -35 -25.5 -70t-31.5 -66q-39 -59 -119 -59t-119 59q-33 45 -59 136 l-246 665q-15 43 -27 88z" />
<glyph unicode="W" horiz-adv-x="1497" d="M102 960q-1 7 0 13q0 36 31 65q41 39 73 39q28 -1 49 -31q44 -66 60 -124l134 -603l151 564q10 39 24.5 84t49.5 71q27 25 79 25t85 -25q35 -31 46 -73.5t23 -81.5l156 -564l131 603q12 47 29.5 96t83.5 49q82 -1 89 -69q2 -23 1 -43q0 -42 -8 -76l-170 -697 q-12 -39 -25.5 -85t-46.5 -74q-27 -23 -77 -23t-77 23q-37 25 -48 68.5t-23 86.5l-166 619l-168 -619q-20 -57 -45 -117.5t-103 -60.5q-35 0 -67 16q-39 18 -54.5 70.5t-27.5 95.5l-170 697q-13 37 -19 81z" />
<glyph unicode="X" horiz-adv-x="1024" d="M96 90q1 45 56 127l229 336l-195 299q-18 27 -35.5 64.5t-17.5 72.5q-1 53 61 69q19 5 36 4q37 0 61 -24q8 -10 25.5 -35.5t41.5 -56.5l156 -254q47 74 97.5 152t101.5 151q18 43 57 64q12 4 26 4q25 -1 54 -13q45 -18 45 -65q0 -43 -51 -129l-205 -303l221 -336 q18 -35 42 -83q12 -25 12 -48q0 -22 -11 -43q-20 -31 -61 -41q-14 -3 -26 -3q-25 0 -46 13q-27 14 -35 31q-57 82 -114.5 173t-110.5 185q-59 -90 -115.5 -178t-109.5 -168q-43 -55 -99 -55q-90 0 -90 90z" />
<glyph unicode="Y" horiz-adv-x="1054" d="M124 937q-11 21 -11 41q0 33 30 60q39 34 71 34q28 0 51 -25q50 -54 81 -101l191 -315q55 88 111.5 178t113.5 184q35 57 114 69q9 1 17 1q63 0 63 -82q0 -35 -22.5 -72t-38.5 -61l-256 -393v-326q0 -51 -25.5 -90t-81.5 -39q-57 0 -78.5 37t-21.5 92v326l-254 389 q-27 35 -54 93z" />
<glyph unicode="Z" horiz-adv-x="1097" d="M96 129q0 27 21 61q12 16 27.5 32t27.5 34l528 635h-450q-39 0 -68.5 15.5t-29.5 62.5q0 39 29.5 58.5t68.5 19.5h584q82 -1 106 -65q10 -27 11 -52q0 -36 -21 -70q-12 -16 -32.5 -40.5t-45.5 -57.5l-494 -588h545q35 0 65.5 -17.5t30.5 -60.5q0 -45 -30.5 -62.5 t-65.5 -17.5h-670q-55 0 -96 25t-41 88z" />
<glyph unicode="a" d="M29 135v776q0 43 30.5 74t75.5 33h776q43 -4 72 -29l92 -100q12 -25 12 -51v-779q0 -45 -30.5 -73.5t-73.5 -28.5h-778q-27 0 -51 12l-84 84q-43 27 -41 82zM57 135q2 -76 78 -78h776q31 0 53.5 22.5t22.5 55.5v776q0 31 -22.5 53.5t-53.5 22.5h-776q-33 0 -55.5 -22.5 t-22.5 -53.5v-776zM133 29l39 -35q12 -8 35 -8h774q31 0 54.5 20.5t23.5 52.5v777q0 20 -8 36l-33 37v-774q-2 -45 -33 -75.5t-74 -30.5h-778zM278 313q6 25 17 47q37 96 76 193.5t75 196.5q6 16 16.5 32.5t26.5 24.5q18 12 37.5 11.5t38.5 -11.5q25 -14 36 -41t22 -51 l143 -350q16 -43 16 -58q0 -35 -36.5 -48t-55.5 13q-8 10 -14 26t-12 28l-25 69h-221l-27 -69q-8 -25 -18.5 -47.5t-40.5 -22.5q-20 0 -37 14q-18 14 -18 32q0 5 1 11zM446 477h162l-82 223zM824 217q-1 2 -1 4q0 4 4 8q6 4 15.5 7.5t15.5 9.5q8 8 21 24l1 1t5 1 q12 0 12 -16v-113q0 -20 -14 -20q-15 0 -15 16v90q-25 -18 -32 -18q-8 0 -12 6z" />
<glyph unicode="b" d="M29 135v776q0 43 30.5 74t75.5 33h776q43 -4 72 -29l92 -100q12 -25 12 -51v-779q0 -45 -30.5 -73.5t-73.5 -28.5h-778q-27 0 -51 12l-84 84q-43 27 -41 82zM57 135q2 -76 78 -78h776q31 0 53.5 22.5t22.5 55.5v776q0 31 -22.5 53.5t-53.5 22.5h-776q-33 0 -55.5 -22.5 t-22.5 -53.5v-776zM133 29l39 -35q12 -8 35 -8h774q31 0 54.5 20.5t23.5 52.5v777q0 20 -8 36l-33 37v-774q-2 -45 -33 -75.5t-74 -30.5h-778zM317 332v407q0 68 66 68h176q31 0 68 -4q49 -8 81.5 -45t32.5 -86q0 -84 -82 -119q109 -35 109 -133q0 -100 -88 -135 q-31 -14 -65.5 -17.5t-65.5 -3.5h-166q-66 0 -66 68zM426 348h119q110 0 110 79q0 50 -37.5 64.5t-76.5 14.5h-115v-158zM426 584h100q27 0 54.5 6t44.5 33q14 26 14 44q1 27 -29 39q-50 20 -94 19h-90v-141zM825 152q-4 6 -4 11t4 9q12 12 19 -2q6 -27 26 -27q25 0 26 25 t-24 25q-6 0 -14 -1.5t-8 11.5q0 10 16 10q23 0 23 20q0 12 -10.5 16.5t-18.5 2.5q-10 -6 -14 -21q-4 -10 -17 -2q-4 4 -4 9.5t4 11.5q11 22 40 22h9q37 -4 37 -36q0 -18 -16 -31q25 -12 25 -35q0 -39 -43 -46q-7 -1 -13 -1q-32 0 -43 29z" />
<glyph unicode="c" d="M29 135v776q0 43 30.5 74t75.5 33h776q43 -4 72 -29l92 -100q12 -25 12 -51v-779q0 -45 -30.5 -73.5t-73.5 -28.5h-778q-27 0 -51 12l-84 84q-43 27 -41 82zM57 135q2 -76 78 -78h776q31 0 53.5 22.5t22.5 55.5v776q0 31 -22.5 53.5t-53.5 22.5h-776q-33 0 -55.5 -22.5 t-22.5 -53.5v-776zM133 29l39 -35q12 -8 35 -8h774q31 0 54.5 20.5t23.5 52.5v777q0 20 -8 36l-33 37v-774q-2 -45 -33 -75.5t-74 -30.5h-778zM295 459q-8 38 -8 76q0 60 20 118q39 106 137 144q49 18 109.5 18t110.5 -24q49 -25 79 -66q12 -20 22.5 -52t-9.5 -55 q-25 -29 -49.5 -11t-36.5 42q-23 39 -52 60q-27 20 -71 20q-70 0 -107 -51q-41 -55 -41 -146q0 -47 13.5 -95t54.5 -72q33 -23 79 -23t77 25q35 23 51 69q6 18 15 32.5t34 14.5q49 0 49 -47q0 -33 -16.5 -62.5t-36.5 -51.5q-33 -37 -78 -51.5t-92 -14.5q-84 0 -141 33 q-45 25 -74 73t-39 97zM825 152q-4 6 -4 11t4 9q12 12 19 -2q6 -27 26 -27q25 0 26 25t-24 25q-6 0 -14 -1.5t-8 11.5q0 10 16 10q23 0 23 20q0 12 -10.5 16.5t-18.5 2.5q-10 -6 -14 -21q-4 -10 -17 -2q-4 4 -4 9.5t4 11.5q11 22 40 22h9q37 -4 37 -36q0 -18 -16 -31 q25 -12 25 -35q0 -39 -43 -46q-7 -1 -13 -1q-32 0 -43 29z" />
<glyph unicode="d" d="M29 135v776q0 43 30.5 74t75.5 33h776q43 -4 72 -29l92 -100q12 -25 12 -51v-779q0 -45 -30.5 -73.5t-73.5 -28.5h-778q-27 0 -51 12l-84 84q-43 27 -41 82zM57 135q2 -76 78 -78h776q31 0 53.5 22.5t22.5 55.5v776q0 31 -22.5 53.5t-53.5 22.5h-776q-33 0 -55.5 -22.5 t-22.5 -53.5v-776zM133 29l39 -35q12 -8 35 -8h774q31 0 54.5 20.5t23.5 52.5v777q0 20 -8 36l-33 37v-774q-2 -45 -33 -75.5t-74 -30.5h-778zM311 342v397q0 68 66 68h143q45 0 88 -9.5t80 -39.5q86 -72 86 -219q0 -43 -8 -85t-27 -77q-49 -94 -149 -107q-45 -7 -93 -7h-13 q-54 1 -105 1q-43 0 -55.5 20.5t-12.5 57.5zM420 352q41 0 98 -1h4q54 0 84 28q55 45 56 160q0 45 -15.5 99t-68.5 71q-37 12 -79 12h-79v-369zM823 139q0 10 12.5 22.5t18.5 20.5q16 12 16 13q6 4 15.5 13t9.5 21q0 18 -17.5 21.5t-25.5 -10.5q-4 -6 -6 -13.5t-12 -7.5 t-11 12q0 27 27 35q15 5 29 4q10 0 20 -2q23 -10 23 -37q0 -31 -26 -47t-40 -34h53q14 0 15 -13q0 -12 -13 -12h-73q-14 0 -15 14z" />
<glyph unicode="e" d="M29 135v776q0 43 30.5 74t75.5 33h776q43 -4 72 -29l92 -100q12 -25 12 -51v-779q0 -45 -30.5 -73.5t-73.5 -28.5h-778q-27 0 -51 12l-84 84q-43 27 -41 82zM57 135q2 -76 78 -78h776q31 0 53.5 22.5t22.5 55.5v776q0 31 -22.5 53.5t-53.5 22.5h-776q-33 0 -55.5 -22.5 t-22.5 -53.5v-776zM133 29l39 -35q12 -8 35 -8h774q31 0 54.5 20.5t23.5 52.5v777q0 20 -8 36l-33 37v-774q-2 -45 -33 -75.5t-74 -30.5h-778zM338 332v407q0 68 65 68h291q18 0 34.5 -9.5t16.5 -31.5q0 -43 -51 -43h-248v-133h228q51 0 51 -41q0 -25 -16.5 -34t-34.5 -9 h-228v-154h256q53 0 54 -43q0 -25 -17.5 -35t-36.5 -10h-299q-66 0 -65 68zM824 217q-1 2 -1 4q0 4 4 8q6 4 15.5 7.5t15.5 9.5q8 8 21 24l1 1t5 1q12 0 12 -16v-113q0 -20 -14 -20q-15 0 -15 16v90q-25 -18 -32 -18q-8 0 -12 6z" />
<glyph unicode="f" d="M29 135v776q0 43 30.5 74t75.5 33h776q43 -4 72 -29l92 -100q12 -25 12 -51v-779q0 -45 -30.5 -73.5t-73.5 -28.5h-778q-27 0 -51 12l-84 84q-43 27 -41 82zM57 135q2 -76 78 -78h776q31 0 53.5 22.5t22.5 55.5v776q0 31 -22.5 53.5t-53.5 22.5h-776q-33 0 -55.5 -22.5 t-22.5 -53.5v-776zM133 29l39 -35q12 -8 35 -8h774q31 0 54.5 20.5t23.5 52.5v777q0 20 -8 36l-33 37v-774q-2 -45 -33 -75.5t-74 -30.5h-778zM358 324v415q0 68 68 68h258q53 0 53 -41q0 -43 -53 -43h-215v-139h180q18 0 34.5 -9.5t16.5 -31.5q0 -25 -16 -33t-35 -8h-180 v-178q0 -29 -13.5 -48.5t-41.5 -19.5q-31 0 -43.5 19.5t-12.5 48.5zM816 163q-2 3 -2 7q0 5 3 10q12 18 27.5 39t32.5 41q6 12 16 12q14 0 14 -16v-78q23 0 23 -10q0 -12 -23 -12v-20.5t-12 -12.5t-12 14v19h-49q-12 0 -18 7zM840 178h43v60z" />
<glyph unicode="g" d="M29 135v776q0 43 30.5 74t75.5 33h776q43 -4 72 -29l92 -100q12 -25 12 -51v-779q0 -45 -30.5 -73.5t-73.5 -28.5h-778q-27 0 -51 12l-84 84q-43 27 -41 82zM57 135q2 -76 78 -78h776q31 0 53.5 22.5t22.5 55.5v776q0 31 -22.5 53.5t-53.5 22.5h-776q-33 0 -55.5 -22.5 t-22.5 -53.5v-776zM133 29l39 -35q12 -8 35 -8h774q31 0 54.5 20.5t23.5 52.5v777q0 20 -8 36l-33 37v-774q-2 -45 -33 -75.5t-74 -30.5h-778zM270 481q-3 28 -3 54q0 61 20 116q18 53 55 90q41 41 96.5 58.5t112.5 17.5q41 0 86 -12t78 -39q18 -16 35.5 -42t17.5 -50 q0 -37 -37 -47.5t-55 18.5q-12 14 -20.5 27.5t-14.5 21.5q-31 31 -81 36q-12 1 -23 1q-36 0 -64 -12q-53 -25 -73.5 -76t-20.5 -104q0 -96 43 -146q35 -43 90 -50q18 -2 36 -2q35 0 68 9q29 8 68 29v88h-84q-23 0 -43 7t-20 34q0 20 15 30.5t34 10.5h125q29 0 39 -4 q20 -6 27 -24t7 -36v-104q0 -41 -18 -55q-8 -8 -29 -19q-53 -29 -94 -39q-47 -12 -99 -12q-30 0 -62 4q-85 12 -140 72q-59 57 -72 149zM823 139q0 10 12.5 22.5t18.5 20.5q16 12 16 13q6 4 15.5 13t9.5 21q0 18 -17.5 21.5t-25.5 -10.5q-4 -6 -6 -13.5t-12 -7.5t-11 12 q0 27 27 35q15 5 29 5q11 0 20 -3q23 -10 23 -37q0 -31 -26 -47t-40 -34h53q14 0 15 -13q0 -12 -13 -12h-73q-14 0 -15 14z" />
<glyph unicode="h" d="M29 135v776q0 43 30.5 74t75.5 33h776q43 -4 72 -29l92 -100q12 -25 12 -51v-779q0 -45 -30.5 -73.5t-73.5 -28.5h-778q-27 0 -51 12l-84 84q-43 27 -41 82zM57 135q2 -76 78 -78h776q31 0 53.5 22.5t22.5 55.5v776q0 31 -22.5 53.5t-53.5 22.5h-776q-33 0 -55.5 -22.5 t-22.5 -53.5v-776zM133 29l39 -35q12 -8 35 -8h774q31 0 54.5 20.5t23.5 52.5v777q0 20 -8 36l-33 37v-774q-2 -45 -33 -75.5t-74 -30.5h-778zM303 324v426q0 27 11.5 47t41.5 20q31 0 43.5 -20t12.5 -47v-156h237v156q0 25 12.5 46t43.5 21q29 0 42 -21.5t13 -45.5v-426 q0 -27 -13.5 -47.5t-41.5 -20.5q-31 0 -43.5 19.5t-12.5 48.5v182h-237v-182q0 -27 -12.5 -47.5t-43.5 -20.5t-42 19.5t-11 48.5zM816 163q-3 3 -2 7q0 4 3 10q12 18 27.5 39t32.5 41q6 12 16 12q14 0 14 -16v-78q23 0 23 -10q0 -12 -23 -12v-20.5t-12 -12.5t-12 14v19h-49 q-12 0 -18 7zM840 178h43v60z" />
<glyph unicode="i" d="M29 135v776q0 43 30.5 74t75.5 33h776q43 -4 72 -29l92 -100q12 -25 12 -51v-779q0 -45 -30.5 -73.5t-73.5 -28.5h-778q-27 0 -51 12l-84 84q-43 27 -41 82zM57 135q2 -76 78 -78h776q31 0 53.5 22.5t22.5 55.5v776q0 31 -22.5 53.5t-53.5 22.5h-776q-33 0 -55.5 -22.5 t-22.5 -53.5v-776zM133 29l39 -35q12 -8 35 -8h774q31 0 54.5 20.5t23.5 52.5v777q0 20 -8 36l-33 37v-774q-2 -45 -33 -75.5t-74 -30.5h-778zM475 324v426q0 25 12.5 46t42.5 21q29 0 42.5 -21.5t13.5 -45.5v-426q0 -29 -13.5 -48.5t-42.5 -19.5q-31 0 -43 20.5t-12 47.5z M824 217q-1 2 -1 4q0 4 4 8q6 4 14.5 7.5t16.5 9.5q6 6 10 12t11 12q0 2 6 2q12 0 12 -16v-113q0 -20 -14 -20q-15 0 -15 16v90q-25 -18 -32 -18q-8 0 -12 6z" />
<glyph unicode="j" d="M29 135v776q0 43 30.5 74t75.5 33h776q43 -4 72 -29l92 -100q12 -25 12 -51v-779q0 -45 -30.5 -73.5t-73.5 -28.5h-778q-27 0 -51 12l-84 84q-43 27 -41 82zM57 135q2 -76 78 -78h776q31 0 53.5 22.5t22.5 55.5v776q0 31 -22.5 53.5t-53.5 22.5h-776q-33 0 -55.5 -22.5 t-22.5 -53.5v-776zM133 29l39 -35q12 -8 35 -8h774q31 0 54.5 20.5t23.5 52.5v777q0 20 -8 36l-33 37v-774q-2 -45 -33 -75.5t-74 -30.5h-778zM328 423v6q0 24 14 40q29 27 55.5 9.5t32.5 -48.5q6 -37 19.5 -61.5t56.5 -24.5q72 0 72 107v299q0 27 12 47t43 20q29 0 42 -20 t13 -47v-285q0 -90 -39 -149.5t-143 -59.5q-63 0 -108.5 26.5t-61.5 94.5q-6 18 -8 46zM821 178q6 19 25 27q-21 8 -21 28q0 37 46.5 37t46.5 -37q0 -20 -19 -28q25 -12 25 -39t-25 -37q-12 -6 -27 -6q-6 0 -12 1q-24 3 -35 21q-6 9 -6 19q0 7 2 14zM872 141q25 0 25 27 t-27 27q-24 0 -24 -24q0 -30 26 -30zM871.5 213q21.5 0 21.5 20q-1 21 -21 21q-22 0 -22 -19q0 -22 21.5 -22z" />
<glyph unicode="k" d="M29 135v776q0 43 30.5 74t75.5 33h776q43 -4 72 -29l92 -100q12 -25 12 -51v-779q0 -45 -30.5 -73.5t-73.5 -28.5h-778q-27 0 -51 12l-84 84q-43 27 -41 82zM57 135q2 -76 78 -78h776q31 0 53.5 22.5t22.5 55.5v776q0 31 -22.5 53.5t-53.5 22.5h-776q-33 0 -55.5 -22.5 t-22.5 -53.5v-776zM133 29l39 -35q12 -8 35 -8h774q31 0 54.5 20.5t23.5 52.5v777q0 20 -8 36l-33 37v-774q-2 -45 -33 -75.5t-74 -30.5h-778zM311 346v404q0 27 11.5 47t42.5 20q29 0 42 -20t13 -47v-191l215 225q12 12 24.5 22.5t30.5 10.5q53 0 53 -49q0 -27 -24 -47 l-133 -127l153 -219q12 -23 27.5 -53.5t-8.5 -53.5q-14 -12 -38 -13t-38 11q-14 8 -24.5 24.5t-18.5 31.5l-129 198l-90 -86v-110q0 -31 -15.5 -51.5t-46.5 -16.5q-39 4 -43 32.5t-4 57.5zM825 166q4 6 11.5 3t9.5 -9q6 -18 26 -19q25 0 25 31t-25 31q-6 0 -9 -1l-3 -1 q-6 -4 -15 -10.5t-16 -0.5q-6 4 -2 17l9 47q2 16 16 16h53q14 0 14 -12t-14 -12h-47l-6 -31q27 10 45 4q27 -12 27 -44t-25 -46q-12 -6 -27 -6q-6 0 -12 1q-24 3 -33 21q-6 7 -6 12t4 9z" />
<glyph unicode="l" d="M29 135v776q0 43 30.5 74t75.5 33h776q43 -4 72 -29l92 -100q12 -25 12 -51v-779q0 -45 -30.5 -73.5t-73.5 -28.5h-778q-27 0 -51 12l-84 84q-43 27 -41 82zM57 135q2 -76 78 -78h776q31 0 53.5 22.5t22.5 55.5v776q0 31 -22.5 53.5t-53.5 22.5h-776q-33 0 -55.5 -22.5 t-22.5 -53.5v-776zM133 29l39 -35q12 -8 35 -8h774q31 0 54.5 20.5t23.5 52.5v777q0 20 -8 36l-33 37v-774q-2 -45 -33 -75.5t-74 -30.5h-778zM358 332v418q0 31 17 51q12 14 37.5 14t40.5 -14q16 -20 16 -51v-394h223q18 0 35.5 -11t17.5 -36t-17 -35t-36 -10h-266 q-68 0 -68 68zM824 217q-1 2 -1 4q0 4 4 8q6 4 14.5 7.5t16.5 9.5q6 6 10 12t11 12q0 2 6 2q12 0 12 -16v-113q0 -20 -14 -20q-15 0 -15 16v90q-25 -18 -32 -18q-8 0 -12 6z" />
<glyph unicode="m" d="M29 135v776q0 43 30.5 74t75.5 33h776q43 -4 72 -29l92 -100q12 -25 12 -51v-779q0 -45 -30.5 -73.5t-73.5 -28.5h-778q-27 0 -51 12l-84 84q-43 27 -41 82zM57 135q2 -76 78 -78h776q31 0 53.5 22.5t22.5 55.5v776q0 31 -22.5 53.5t-53.5 22.5h-776q-33 0 -55.5 -22.5 t-22.5 -53.5v-776zM133 29l39 -35q12 -8 35 -8h774q31 0 54.5 20.5t23.5 52.5v777q0 20 -8 36l-33 37v-774q-2 -45 -33 -75.5t-74 -30.5h-778zM270 317v431q0 35 19 47q16 12 38.5 12h45.5q16 0 35.5 -3t27.5 -22q8 -23 17 -47l77 -297l80 297q4 14 7.5 26.5t7.5 20.5 q8 18 27.5 21.5t37.5 3.5h42t42 -12t19 -47v-431q0 -35 -15 -45q-14 -18 -36.5 -17t-34.5 17q-14 10 -15 45v375l-88 -346q-6 -20 -11 -41.5t-22 -36.5q-20 -16 -39 -16q-17 0 -34 12q-20 12 -27.5 35.5t-13.5 46.5l-86 346v-375q0 -25 -12.5 -43t-39.5 -18q-29 0 -39 18.5 t-10 42.5zM825 152q-4 6 -4 11t4 9q12 12 19 -2q6 -27 26 -27q25 0 26 25t-24 25q-6 0 -14 -1.5t-8 11.5q0 10 16 10q23 0 23 20q0 12 -10.5 16.5t-18.5 2.5q-10 -6 -14 -21q-4 -10 -17 -2q-4 4 -4 9.5t4 11.5q11 22 40 22h9q37 -4 37 -36q0 -18 -16 -31q25 -12 25 -35 q0 -39 -43 -46q-7 -1 -13 -1q-32 0 -43 29z" />
<glyph unicode="n" d="M29 135v776q0 43 30.5 74t75.5 33h776q43 -4 72 -29l92 -100q12 -25 12 -51v-779q0 -45 -30.5 -73.5t-73.5 -28.5h-778q-27 0 -51 12l-84 84q-43 27 -41 82zM57 135q2 -76 78 -78h776q31 0 53.5 22.5t22.5 55.5v776q0 31 -22.5 53.5t-53.5 22.5h-776q-33 0 -55.5 -22.5 t-22.5 -53.5v-776zM133 29l39 -35q12 -8 35 -8h774q31 0 54.5 20.5t23.5 52.5v777q0 20 -8 36l-33 37v-774q-2 -45 -33 -75.5t-74 -30.5h-778zM303 319v418q0 29 6 41q12 31 46 37t57 -16q8 -12 16 -24.5t16 -22.5l211 -320v322q0 25 11.5 44t40.5 19q27 0 39 -19.5 t12 -43.5v-426q0 -72 -60 -72q-33 0 -52 20.5t-34 45.5l-206 315v-318q0 -25 -12.5 -44t-39.5 -19q-29 0 -40 18.5t-11 44.5zM824 217q-1 2 -1 4q0 4 4 8q6 4 14.5 7.5t16.5 9.5q6 6 10 12t11 12l1 1t5 1q12 0 12 -16v-113q0 -20 -14 -20q-15 0 -15 16v90q-25 -18 -32 -18 q-8 0 -12 6z" />
<glyph unicode="o" d="M29 135v776q0 43 30.5 74t75.5 33h776q43 -4 72 -29l92 -100q12 -25 12 -51v-779q0 -45 -30.5 -73.5t-73.5 -28.5h-778q-27 0 -51 12l-84 84q-43 27 -41 82zM57 135q2 -76 78 -78h776q31 0 53.5 22.5t22.5 55.5v776q0 31 -22.5 53.5t-53.5 22.5h-776q-33 0 -55.5 -22.5 t-22.5 -53.5v-776zM133 29l39 -35q12 -8 35 -8h774q31 0 54.5 20.5t23.5 52.5v777q0 20 -8 36l-33 37v-774q-2 -45 -33 -75.5t-74 -30.5h-778zM264 539q0 53 16.5 106t53.5 96q37 39 88 57.5t106 18.5q82 0 146 -35q66 -39 94.5 -105.5t28.5 -139.5q0 -55 -16.5 -108.5 t-53.5 -94.5q-37 -43 -89 -60.5t-108 -17.5q-55 0 -107 17.5t-89 60.5q-37 41 -53.5 95t-16.5 110zM377 539q0 -55 19.5 -107.5t72.5 -75.5q31 -16 62 -16q39 0 77 25q43 25 59.5 75t16.5 99q0 45 -15.5 93t-58.5 75q-40 24 -80 24q-31 0 -63 -14q-51 -25 -70.5 -76 t-19.5 -102zM824 217q-1 2 -1 4q0 4 4 8q6 4 14.5 7.5t16.5 9.5q6 6 10 12t11 12q0 2 6 2q12 0 12 -16v-113q0 -20 -14 -20q-15 0 -15 16v90q-25 -18 -32 -18q-8 0 -12 6z" />
<glyph unicode="p" d="M29 135v776q0 43 30.5 74t75.5 33h776q43 -4 72 -29l92 -100q12 -25 12 -51v-779q0 -45 -30.5 -73.5t-73.5 -28.5h-778q-27 0 -51 12l-84 84q-43 27 -41 82zM57 135q2 -76 78 -78h776q31 0 53.5 22.5t22.5 55.5v776q0 31 -22.5 53.5t-53.5 22.5h-776q-33 0 -55.5 -22.5 t-22.5 -53.5v-776zM133 29l39 -35q12 -8 35 -8h774q31 0 54.5 20.5t23.5 52.5v777q0 20 -8 36l-33 37v-774q-2 -45 -33 -75.5t-74 -30.5h-778zM338 322v417q0 68 70 68h139q39 0 81 -7t72 -32q49 -47 50 -123q0 -84 -50 -127q-55 -41 -153 -41h-101v-153q0 -27 -13 -47.5 t-40 -20.5q-31 0 -43 19.5t-12 46.5zM446 559h74q27 0 56.5 5t48.5 30q16 20 14 54t-21 52q-24 25 -98 25h-74v-166zM825 152q-4 6 -4 11t4 9q12 12 19 -2q6 -27 26 -27q25 0 26 25t-24 25q-6 0 -14 -1.5t-8 11.5q0 10 16 10q23 0 23 20q0 12 -10.5 16.5t-18.5 2.5 q-10 -6 -14 -21q-4 -10 -17 -2q-4 4 -4 9.5t4 11.5q11 22 40 22h9q37 -4 37 -36q0 -18 -16 -31q25 -12 25 -35q0 -39 -43 -46q-7 -1 -13 -1q-32 0 -43 29z" />
<glyph unicode="q" d="M29 135v776q0 43 30.5 74t75.5 33h776q43 -4 72 -29l92 -100q12 -25 12 -51v-779q0 -45 -30.5 -73.5t-73.5 -28.5h-778q-27 0 -51 12l-84 84q-43 27 -41 82zM57 135q2 -76 78 -78h776q31 0 53.5 22.5t22.5 55.5v776q0 31 -22.5 53.5t-53.5 22.5h-776q-33 0 -55.5 -22.5 t-22.5 -53.5v-776zM133 29l39 -35q12 -8 35 -8h774q31 0 54.5 20.5t23.5 52.5v777q0 20 -8 36l-33 37v-774q-2 -45 -33 -75.5t-74 -30.5h-778zM264 539q0 53 16.5 107t53.5 95q37 39 88 57.5t106 18.5q82 0 146 -35q66 -37 96 -104q27 -64 27 -132v-9q-6 -90 -34 -134.5 t-56 -85.5q12 -20 28.5 -39.5t16.5 -35.5q0 -31 -33 -31q-18 0 -39 25t-33 45q-29 -14 -53.5 -19.5t-63.5 -5.5q-55 0 -107 17.5t-89 60.5q-37 41 -53.5 95t-16.5 110zM377 539q0 -96 43 -146q31 -37 76 -47q16 -4 32 -4l58 12q-12 20 -28.5 36t-22.5 30q-12 16 -2 32.5 t28 16.5q14 0 31.5 -22.5t46.5 -53.5q27 29 36 67t9 79q0 45 -16.5 93t-57.5 75q-40 23 -81 23q-31 0 -62 -13q-51 -25 -70.5 -76t-19.5 -102zM774 217q-2 2 -2 5t4 7q6 4 15.5 7.5t15.5 9.5t10 12t10 12l1 1t6 1q12 0 12 -16v-113q0 -20 -15 -20q-14 0 -14 16v90 q-25 -18 -33 -18q-6 0 -10 6zM864 223q2 49 49 49q31 0 41.5 -25t10.5 -50q0 -18 -5.5 -38t-21.5 -30q-14 -8 -26 -8q-13 0 -25 10q-20 12 -23 41q-1 16 -1 30q0 11 1 21zM891 199q0 -12 2 -34t20 -22t21.5 22t3.5 34t-3 32.5t-22 20.5q-18 0 -20 -20.5t-2 -32.5z" />
<glyph unicode="r" d="M29 135v776q0 43 30.5 74t75.5 33h776q43 -4 72 -29l92 -100q12 -25 12 -51v-779q0 -45 -30.5 -73.5t-73.5 -28.5h-778q-27 0 -51 12l-84 84q-43 27 -41 82zM57 135q2 -76 78 -78h776q31 0 53.5 22.5t22.5 55.5v776q0 31 -22.5 53.5t-53.5 22.5h-776q-33 0 -55.5 -22.5 t-22.5 -53.5v-776zM133 29l39 -35q12 -8 35 -8h774q31 0 54.5 20.5t23.5 52.5v777q0 20 -8 36l-33 37v-774q-2 -45 -33 -75.5t-74 -30.5h-778zM317 324v415q0 37 15 52q16 16 51 16h180q25 0 54.5 -3t56.5 -13q84 -37 84 -134q0 -57 -33 -96q-37 -37 -104 -51q29 -18 55 -45 q51 -59 80 -127q6 -16 10 -30.5t-4 -28.5q-12 -18 -37 -22.5t-41 7.5q-16 10 -27.5 27.5t-19.5 34.5l-43 73q-25 39 -43 62q-20 23 -37 28q-25 8 -49 9h-39v-174q0 -37 -14 -52q-16 -16 -42 -17t-38 17q-14 14 -15 52zM426 575h98q25 0 57.5 4.5t51.5 26.5q12 14 13 40 t-11 44q-18 25 -49 30t-58 5h-102v-150zM824 217q-1 2 -1 4q0 4 4 8q6 4 15.5 7.5t15.5 9.5q8 8 21 24l1 1t5 1q12 0 12 -16v-113q0 -20 -14 -20q-15 0 -15 16v90q-25 -18 -32 -18q-8 0 -12 6z" />
<glyph unicode="s" d="M29 135v776q0 43 30.5 74t75.5 33h776q43 -4 72 -29l92 -100q12 -25 12 -51v-779q0 -45 -30.5 -73.5t-73.5 -28.5h-778q-27 0 -51 12l-84 84q-43 27 -41 82zM57 135q2 -76 78 -78h776q31 0 53.5 22.5t22.5 55.5v776q0 31 -22.5 53.5t-53.5 22.5h-776q-33 0 -55.5 -22.5 t-22.5 -53.5v-776zM133 29l39 -35q12 -8 35 -8h774q31 0 54.5 20.5t23.5 52.5v777q0 20 -8 36l-33 37v-774q-2 -45 -33 -75.5t-74 -30.5h-778zM320 396q-2 9 -3 18q0 21 15 35q25 25 50.5 10t35.5 -39q31 -84 112 -84q37 0 74 18.5t37 61.5q0 27 -17.5 44t-41.5 25 q-43 12 -86 22.5t-82 29.5q-43 20 -62 49q-24 31 -24 74v5q2 46 24 78q29 41 80 57.5t100 16.5q55 0 124 -31.5t69 -101.5q0 -20 -14.5 -35.5t-32.5 -15.5q-33 0 -51 41q-33 65 -101 65h-2q-29 0 -61.5 -15t-32.5 -48q0 -29 21.5 -43.5t44.5 -20.5q31 -10 66.5 -18t68.5 -19 q53 -18 86 -54t33 -93q0 -92 -69 -132t-146 -40q-59 0 -110.5 19.5t-82.5 68.5q-14 20 -22 52zM824 217q-1 2 -1 4q0 4 4 8q6 4 15.5 7.5t15.5 9.5t10 12t11 12l1 1t5 1q12 0 12 -16v-113q0 -20 -14 -20q-15 0 -15 16v90q-25 -18 -32 -18q-8 0 -12 6z" />
<glyph unicode="t" d="M29 135v776q0 43 30.5 74t75.5 33h776q43 -4 72 -29l92 -100q12 -25 12 -51v-779q0 -45 -30.5 -73.5t-73.5 -28.5h-778q-27 0 -51 12l-84 84q-43 27 -41 82zM57 135q2 -76 78 -78h776q31 0 53.5 22.5t22.5 55.5v776q0 31 -22.5 53.5t-53.5 22.5h-776q-33 0 -55.5 -22.5 t-22.5 -53.5v-776zM133 29l39 -35q12 -8 35 -8h774q31 0 54.5 20.5t23.5 52.5v777q0 20 -8 36l-33 37v-774q-2 -45 -33 -75.5t-74 -30.5h-778zM301 762q0 25 16.5 35t38.5 10h349q23 0 40 -10.5t17 -34.5q0 -25 -17.5 -35t-39.5 -10h-119v-393q0 -27 -12.5 -47.5 t-43.5 -20.5t-43 19.5t-12 48.5v393h-119q-23 0 -39 10t-16 35zM824 217q-1 2 -1 4q0 4 4 8q6 4 14.5 7.5t16.5 9.5q6 6 10 12t11 12l1 1t5 1q12 0 12 -16v-113q0 -20 -14 -20q-15 0 -15 16v90q-25 -18 -32 -18q-8 0 -12 6z" />
<glyph unicode="u" d="M29 135v776q0 43 30.5 74t75.5 33h776q43 -4 72 -29l92 -100q12 -25 12 -51v-779q0 -45 -30.5 -73.5t-73.5 -28.5h-778q-27 0 -51 12l-84 84q-43 27 -41 82zM57 135q2 -76 78 -78h776q31 0 53.5 22.5t22.5 55.5v776q0 31 -22.5 53.5t-53.5 22.5h-776q-33 0 -55.5 -22.5 t-22.5 -53.5v-776zM133 29l39 -35q12 -8 35 -8h774q31 0 54.5 20.5t23.5 52.5v777q0 20 -8 36l-33 37v-774q-2 -45 -33 -75.5t-74 -30.5h-778zM303 489v261q0 25 11.5 46t41.5 21q31 0 43.5 -21.5t12.5 -45.5v-267q0 -68 25.5 -103.5t92.5 -35.5q68 0 93.5 37t25.5 100v269 q0 25 11.5 46t41.5 21q31 0 43.5 -21.5t12.5 -45.5v-261q0 -109 -50.5 -171t-168.5 -62q-123 0 -179.5 55t-56.5 178zM824 217q-1 2 -1 4q0 4 4 8q6 4 15.5 7.5t15.5 9.5q8 8 21 24l1 1t5 1q12 0 12 -16v-113q0 -20 -14 -20q-15 0 -15 16v90q-25 -18 -32 -18q-8 0 -12 6z " />
<glyph unicode="v" d="M29 135v776q0 43 30.5 74t75.5 33h776q43 -4 72 -29l92 -100q12 -25 12 -51v-779q0 -45 -30.5 -73.5t-73.5 -28.5h-778q-27 0 -51 12l-84 84q-43 27 -41 82zM57 135q2 -76 78 -78h776q31 0 53.5 22.5t22.5 55.5v776q0 31 -22.5 53.5t-53.5 22.5h-776q-33 0 -55.5 -22.5 t-22.5 -53.5v-776zM133 29l39 -35q12 -8 35 -8h774q31 0 54.5 20.5t23.5 52.5v777q0 20 -8 36l-33 37v-774q-2 -45 -33 -75.5t-74 -30.5h-778zM293 755q-1 5 -1 11q0 18 15 35q21 21 38 21q15 0 27 -15q26 -33 38 -64l122 -362l123 367q10 30 42 64q12 13 24 13q20 0 41 -34 q10 -18 4 -39t-12 -39l-131 -355q-6 -18 -13.5 -36.5t-17.5 -34.5q-20 -31 -62.5 -31t-62.5 31q-16 25 -31 71l-129 351q-8 23 -14 46zM816 163q-3 3 -2 7q0 4 3 10q12 18 27.5 39t32.5 41q6 12 16 12q14 0 14 -16v-78q23 0 23 -10q0 -12 -23 -12v-20.5t-12 -12.5t-12 14v19 h-49q-12 0 -18 7zM840 178h43v60z" />
<glyph unicode="w" d="M29 135v776q0 43 30.5 74t75.5 33h776q43 -4 72 -29l92 -100q12 -25 12 -51v-779q0 -45 -30.5 -73.5t-73.5 -28.5h-778q-27 0 -51 12l-84 84q-43 27 -41 82zM57 135q2 -76 78 -78h776q31 0 53.5 22.5t22.5 55.5v776q0 31 -22.5 53.5t-53.5 22.5h-776q-33 0 -55.5 -22.5 t-22.5 -53.5v-776zM133 29l39 -35q12 -8 35 -8h774q31 0 54.5 20.5t23.5 52.5v777q0 20 -8 36l-33 37v-774q-2 -45 -33 -75.5t-74 -30.5h-778zM188 760q-1 4 -1 8q0 19 16 35q22 21 38 21q15 0 27 -17q24 -35 31 -66l70 -317l80 297q6 20 13 43.5t25 38.5q14 12 42 12 t44 -12q18 -16 24.5 -39t12.5 -43l82 -297l70 317q6 25 15 50.5t44 25.5q43 0 46 -36t-3 -62l-90 -367q-6 -20 -13 -44.5t-24 -39.5q-14 -12 -40.5 -12t-41.5 12q-18 12 -24.5 35.5t-12.5 46.5l-88 326l-88 -326q-10 -31 -23 -62.5t-54 -31.5q-18 0 -35 8q-20 10 -28.5 38 t-14.5 50l-90 367q-5 17 -9 41zM816 163q-3 3 -2 7q0 4 3 10q12 18 27.5 39t32.5 41q6 12 16 12q14 0 14 -16v-78q23 0 23 -10q0 -12 -23 -12v-20.5t-12 -12.5t-12 14v19h-49q-12 0 -18 7zM840 178h43v60z" />
<glyph unicode="x" d="M29 135v776q0 43 30.5 74t75.5 33h776q43 -4 72 -29l92 -100q12 -25 12 -51v-779q0 -45 -30.5 -73.5t-73.5 -28.5h-778q-27 0 -51 12l-84 84q-43 27 -41 82zM57 135q2 -76 78 -78h776q31 0 53.5 22.5t22.5 55.5v776q0 31 -22.5 53.5t-53.5 22.5h-776q-33 0 -55.5 -22.5 t-22.5 -53.5v-776zM133 29l39 -35q12 -8 35 -8h774q31 0 54.5 20.5t23.5 52.5v777q0 20 -8 36l-33 37v-774q-2 -45 -33 -75.5t-74 -30.5h-778zM313 303q0 25 29 68l121 176l-103 158q-10 14 -19 33.5t-9 37.5q0 29 32 37q10 2 19 2q20 0 33 -12l13 -19.5t22 -29.5l81 -133 q25 39 51.5 79.5t53.5 79.5q10 23 31 33q7 2 14 2q14 0 28 -6q24 -10 23 -35q0 -23 -26 -67l-109 -160l117 -176q10 -18 22.5 -44t-0.5 -48q-10 -16 -31.5 -21.5t-37.5 4.5q-14 8 -19 17q-31 43 -60.5 91t-58.5 97q-31 -47 -60.5 -93t-57.5 -89q-23 -29 -52 -29 q-47 0 -47 47zM800 180q5 19 23 27q-20 11 -20 29q0 37 46 37l1 -1q47 0 47 -36q0 -23 -20 -29q25 -12 25 -38q0 -28 -23 -38q-13 -6 -29 -6q-6 0 -13 1q-24 3 -32 21q-7 9 -7 21q0 6 2 12zM825 170q0 -27 25 -27q24 0 24 27t-24 27q-25 0 -25 -27zM829 233q0 -18 20.5 -18 t20.5 21q0 20 -20 20t-21 -23z" />
<glyph unicode="y" d="M29 135v776q0 43 30.5 74t75.5 33h776q43 -4 72 -29l92 -100q12 -25 12 -51v-779q0 -45 -30.5 -73.5t-73.5 -28.5h-778q-27 0 -51 12l-84 84q-43 27 -41 82zM57 135q2 -76 78 -78h776q31 0 53.5 22.5t22.5 55.5v776q0 31 -22.5 53.5t-53.5 22.5h-776q-33 0 -55.5 -22.5 t-22.5 -53.5v-776zM133 29l39 -35q12 -8 35 -8h774q31 0 54.5 20.5t23.5 52.5v777q0 20 -8 36l-33 37v-774q-2 -45 -33 -75.5t-74 -30.5h-778zM314 749q-6 11 -6 22q0 17 16 32q20 18 36 18q15 0 28 -14q26 -29 42 -53l100 -166q29 47 58.5 94t60.5 96q18 31 61 37q4 1 8 1 q34 0 34 -44q0 -18 -12.5 -37.5t-20.5 -32.5l-135 -206v-172q0 -27 -13.5 -47.5t-42.5 -20.5q-31 0 -42 19.5t-11 48.5v172l-133 204q-14 18 -28 49zM816 163q-2 3 -2 7q0 5 3 10q12 18 27.5 39t32.5 41q6 12 16 12q14 0 14 -16v-78q23 0 23 -10q0 -12 -23 -12v-20.5 t-12 -12.5t-12 14v19h-49q-12 0 -18 7zM840 178h43v60z" />
<glyph unicode="z" d="M29 135v776q0 43 30.5 74t75.5 33h776q43 -4 72 -29l92 -100q12 -25 12 -51v-779q0 -45 -30.5 -73.5t-73.5 -28.5h-778q-27 0 -51 12l-84 84q-43 27 -41 82zM57 135q2 -76 78 -78h776q31 0 53.5 22.5t22.5 55.5v776q0 31 -22.5 53.5t-53.5 22.5h-776q-33 0 -55.5 -22.5 t-22.5 -53.5v-776zM133 29l39 -35q12 -8 35 -8h774q31 0 54.5 20.5t23.5 52.5v777q0 20 -8 36l-33 37v-774q-2 -45 -33 -75.5t-74 -30.5h-778zM291 324q0 14 10 32q6 8 14.5 16.5t14.5 18.5l278 334h-237q-20 0 -36 8t-16 33q0 20 15.5 30.5t36.5 10.5h307q42 0 56 -34 q6 -14 6 -28q0 -19 -11 -36q-6 -8 -17.5 -21.5t-23.5 -30.5l-260 -309h287q18 0 34.5 -9t16.5 -32q0 -25 -16.5 -34t-34.5 -9h-353q-29 0 -50 13.5t-21 46.5zM746 217q-2 2 -2 5q0 4 4 7q6 4 15 7.5t15 9.5q8 8 21 24l2 1t4 1q12 0 12 -16v-113q0 -20 -14 -20q-12 0 -12 16 v90q-29 -18 -35 -18t-10 6zM864 223q6 49 49 49q31 0 43 -28q9 -20 9 -47q0 -18 -6.5 -39t-20.5 -29t-26 -8q-14 0 -25 10q-17 10 -21 40q-3 21 -3 38q0 7 1 14zM891 199q0 -12 2 -34t20 -22t21.5 22t3.5 34t-3 32.5t-22 20.5q-18 0 -20 -20.5t-2 -32.5z" />
<glyph unicode="&#xa0;" d="M29 135v776q0 39 30 74q31 29 76 33h776q43 -4 72 -29l92 -100q12 -25 12 -51v-779q0 -51 -43 -82q-27 -20 -61 -20h-778q-27 0 -51 12l-84 84q-4 0 -6.5 2t-4.5 4q-31 33 -30 76zM57 135q0 -6 1 -12t3 -10q14 -53 74 -56h776q6 0 11.5 1t11.5 3q53 16 53 74v776 q0 14 -2 23q-21 53 -74 53h-776q-16 0 -22 -2q-53 -20 -56 -74v-776zM133 29l39 -35q12 -8 35 -8h774h6h2h4q2 2 5 3t8 1q53 16 53 69v777q0 20 -8 36l-33 37v-774q-4 -47 -33 -76q-35 -31 -74 -30h-778z" />
<glyph unicode="&#x2000;" horiz-adv-x="540" />
<glyph unicode="&#x2001;" horiz-adv-x="1081" />
<glyph unicode="&#x2002;" horiz-adv-x="540" />
<glyph unicode="&#x2003;" horiz-adv-x="1081" />
<glyph unicode="&#x2004;" horiz-adv-x="360" />
<glyph unicode="&#x2005;" horiz-adv-x="270" />
<glyph unicode="&#x2006;" horiz-adv-x="180" />
<glyph unicode="&#x2007;" horiz-adv-x="180" />
<glyph unicode="&#x2008;" horiz-adv-x="135" />
<glyph unicode="&#x2009;" horiz-adv-x="216" />
<glyph unicode="&#x200a;" horiz-adv-x="60" />
<glyph unicode="&#x202f;" horiz-adv-x="216" />
<glyph unicode="&#x205f;" horiz-adv-x="270" />
<glyph unicode="&#xe000;" horiz-adv-x="1013" d="M0 0v1014h1014v-1014h-1014z" />
</font>
</defs>
</svg>
